<mxfile host="65bd71144e">
    <diagram id="QXTh9ya6ai22UR2-QfdN" name="Page-1">
        <mxGraphModel dx="719" dy="443" grid="1" gridSize="10" guides="1" tooltips="1" connect="1" arrows="1" fold="1" page="1" pageScale="1" pageWidth="850" pageHeight="1100" math="0" shadow="0">
            <root>
                <mxCell id="0"/>
                <mxCell id="1" parent="0"/>
                <mxCell id="2" value="&lt;b&gt;Cliente&lt;/b&gt;" style="rounded=0;whiteSpace=wrap;html=1;fillColor=#3CEAF0;strokeColor=#F0DADA;" parent="1" vertex="1">
                    <mxGeometry x="90" y="140" width="120" height="60" as="geometry"/>
                </mxCell>
                <mxCell id="9" style="edgeStyle=none;html=1;exitX=0.5;exitY=0;exitDx=0;exitDy=0;entryX=0.5;entryY=1;entryDx=0;entryDy=0;fillColor=#1D0101;strokeColor=#F0DADA;" edge="1" parent="1" source="3" target="5">
                    <mxGeometry relative="1" as="geometry">
                        <Array as="points">
                            <mxPoint x="350" y="240"/>
                        </Array>
                    </mxGeometry>
                </mxCell>
                <mxCell id="3" value="&lt;b&gt;vendedor&lt;/b&gt;" style="rounded=0;whiteSpace=wrap;html=1;fillColor=#3CEAF0;strokeColor=#F0DADA;" parent="1" vertex="1">
                    <mxGeometry x="290" y="270" width="120" height="60" as="geometry"/>
                </mxCell>
                <mxCell id="4" value="&lt;b&gt;produto&lt;/b&gt;" style="rounded=0;whiteSpace=wrap;html=1;fillColor=#3CEAF0;strokeColor=#F0DADA;" parent="1" vertex="1">
                    <mxGeometry x="520" y="140" width="120" height="60" as="geometry"/>
                </mxCell>
                <mxCell id="7" value="" style="edgeStyle=none;html=1;startArrow=classic;startFill=1;fillColor=#1D0101;strokeColor=#F0DADA;" parent="1" source="5" target="4" edge="1">
                    <mxGeometry relative="1" as="geometry"/>
                </mxCell>
                <mxCell id="8" value="" style="edgeStyle=none;html=1;startArrow=classic;startFill=1;fillColor=#1D0101;strokeColor=#F0DADA;" parent="1" source="5" target="2" edge="1">
                    <mxGeometry relative="1" as="geometry"/>
                </mxCell>
                <mxCell id="5" value="&lt;b&gt;Transações&lt;/b&gt;" style="rounded=0;whiteSpace=wrap;html=1;fillColor=#3CEAF0;strokeColor=#F0DADA;" parent="1" vertex="1">
                    <mxGeometry x="290" y="140" width="120" height="60" as="geometry"/>
                </mxCell>
                <mxCell id="14" value="&lt;b&gt;Livraria&amp;nbsp;&lt;/b&gt;" style="text;strokeColor=#ACADAD;align=center;fillColor=#3CEAF0;html=1;verticalAlign=middle;whiteSpace=wrap;rounded=0;shadow=1;" vertex="1" parent="1">
                    <mxGeometry x="80" y="50" width="190" height="40" as="geometry"/>
                </mxCell>
            </root>
        </mxGraphModel>
    </diagram>
</mxfile>